<svg xmlns="http://www.w3.org/2000/svg" version="1.1" xmlns:xlink="http://www.w3.org/1999/xlink" xmlns:svgjs="http://svgjs.dev/svgjs" viewBox="0 0 3840 2160" style="overflow: hidden; height: 85vh;" class="overflow-hidden rounded-md drop-shadow-lg transition duration-300"><rect width="3840" height="2160" fill="#e1e1e2"/><g clip-path="url(&quot;#SvgjsClipPath1643&quot;)"><g transform="matrix(7.04171909509728e-17,1.15,-1.15,7.04171909509728e-17,3147.6035919189453,-1111.4441307067868)"><path d="M0,-2160C5.680593601160335,-1886.345601651336,27.842252118592,-1058.5679471299954,34.08356160696201,-518.0736099080161C40.324871095332014,22.42072731396331,47.78347798993188,546.893152635118,37.44785693022004,1082.9660233318768C27.112235870508197,1619.0388940286357,-21.68885526293905,2158.8579514945163,-27.930164751309057,2698.363614272537C-34.171474239679064,3237.8692770505572,-4.655027458551509,4049.727269045423,0,4320L 3840 4320 L 3840 -2160 Z" fill="url(&quot;#SvgjsLinearGradient1636&quot;)"/><path d="M548.5714285714286,-2160C545.1683604597456,-2003.3147767310193,524.2080610026403,-1522.8374423722616,528.1530199013307,-1219.888660386116C532.0979788000211,-916.9398783999704,575.136047510483,-648.2660425223892,572.2411819635711,-342.3073080831258C569.3463164166592,-36.348573643862494,510.1321996175031,297.1457115618458,510.78382661985904,615.8637462494638C511.435453622215,934.5817809370818,567.1860653030324,1266.6935768119597,576.1509439777067,1570.0009000425823C585.115822652381,1873.308223273205,575.6396329638978,2128.518649528991,564.5730986679049,2435.7076856332C553.506564371912,2742.8967217374093,512.4186832178283,3099.086397606703,509.75173820174894,3413.1351166678364C507.0847931856695,3727.18383572897,542.1014801764819,4168.855852777972,548.5714285714286,4320L 3840 4320 L 3840 -2160 Z" fill="url(&quot;#SvgjsLinearGradient1637&quot;)"/><path d="M1097.142857142857,-2160C1097.3580282841415,-1946.0443250857686,1095.9027430677095,-1306.6951109759384,1098.4338839905636,-876.2659505146113C1100.9650249134177,-445.8367900532841,1109.7195555739988,-11.239039220594748,1112.329702679982,422.5749627679629C1114.939849785965,856.3889647565206,1117.6753495418523,1298.3857309185703,1114.094766626462,1726.6180614167345C1110.5141837110716,2154.850391914899,1093.6715234349076,2559.7386226597373,1090.8462051876402,2991.9689457569484C1088.0208869403727,3424.1992688541595,1096.0934151503209,4098.661490959492,1097.142857142857,4320L 3840 4320 L 3840 -2160 Z" fill="url(&quot;#SvgjsLinearGradient1638&quot;)"/><path d="M1645.7142857142856,-2160C1642.3410876527537,-1949.2035733357156,1621.0793392746814,-1323.8421467285496,1625.4750973450944,-895.2214400142946C1629.8708554155073,-466.6007333000395,1667.4900790007875,-31.399226571554493,1672.088834136763,411.7242402855304C1676.6875892727383,854.8477071426153,1656.2570340250784,1325.5568292835649,1653.0676281609465,1763.519361128215C1649.8782222968146,2201.481892972865,1654.1779560264151,2613.4193248747997,1652.9523989519716,3039.4994313534307C1651.7268418775282,3465.5795378320618,1646.9206379205666,4106.583238558906,1645.7142857142856,4320L 3840 4320 L 3840 -2160 Z" fill="url(&quot;#SvgjsLinearGradient1639&quot;)"/><path d="M2194.285714285714,-2160C2193.933591658125,-2018.9102615956806,2197.4167336663086,-1585.594949691578,2192.1729785201796,-1313.461569574084C2186.9292233740507,-1041.32818945659,2164.017287196405,-795.2060154626945,2162.823183408942,-527.1997192950367C2161.629079621479,-259.19342312737894,2175.4105913656545,23.494834820020742,2185.0083557954026,294.57620743186277C2194.606120225151,565.6575800437048,2223.085018858427,837.9586268840162,2220.4097699874314,1099.2885163760154C2217.734521116436,1360.6184058680146,2176.596874636085,1591.526467717702,2168.9568625694296,1862.5555443838582C2161.3168505027743,2133.5846210500144,2164.1942159257296,2454.338064213357,2174.5696975874994,2725.4629763729527C2184.945179249269,2996.5878885325483,2227.923749757014,3223.5488467369237,2231.2097525400495,3489.3050173414317C2234.495755323085,3755.0611879459398,2200.4397206614367,4181.550836223572,2194.285714285714,4320L 3840 4320 L 3840 -2160 Z" fill="url(&quot;#SvgjsLinearGradient1640&quot;)"/><path d="M2742.857142857143,-2160C2744.847989850911,-1940.2645481460531,2758.1249542796395,-1279.1975896901738,2754.802224819749,-841.587288876319C2751.4794953598584,-403.9769880624643,2722.170415251323,30.922585930135313,2722.9207660977995,465.6618048831283C2723.671116944276,900.4010238361213,2751.626549384829,1346.0692055494717,2759.3043298986086,1766.8480248416388C2766.982110412388,2187.626844133806,2771.72864702072,2564.8093914430706,2768.987449180476,2990.334720636131C2766.2462513402315,3415.860049829191,2747.212193911032,4098.389120106021,2742.857142857143,4320L 3840 4320 L 3840 -2160 Z" fill="url(&quot;#SvgjsLinearGradient1641&quot;)"/><path d="M3291.428571428571,-2160C3293.124226570533,-1974.3910788644648,3300.43628959474,-1403.5096553822707,3301.6025022803433,-1046.3464731867896C3302.7687149659464,-689.1832909913085,3305.7771980647994,-369.3531042669805,3298.425847542189,-17.0209068271136C3291.0744970195783,335.3112906127533,3253.389805978911,701.0042839196717,3257.4943991446808,1067.6467114524119C3261.5989923104503,1434.289138985152,3311.741458549125,1820.6341961120613,3323.053406536805,2182.833658369327C3334.365354524485,2545.033120626593,3330.636892922134,2884.6490947242273,3325.3660870707618,3240.8434849960063C3320.0952812193896,3597.0378752677852,3297.0848240356027,4140.140580832668,3291.428571428571,4320L 3840 4320 L 3840 -2160 Z" fill="url(&quot;#SvgjsLinearGradient1642&quot;)"/></g></g><defs><linearGradient x1="0.1" y1="0" x2="0" y2="1" id="SvgjsLinearGradient1636"><stop stop-color="#e1e1e2" offset="0"/><stop stop-color="#e1e1e2" offset="0"/></linearGradient><linearGradient x1="0.1" y1="0" x2="0" y2="1" id="SvgjsLinearGradient1637"><stop stop-color="#e5e5e6" offset="0"/><stop stop-color="#e5e5e6" offset="0.14285714285714285"/></linearGradient><linearGradient x1="0.1" y1="0" x2="0" y2="1" id="SvgjsLinearGradient1638"><stop stop-color="#eaeaea" offset="0"/><stop stop-color="#eaeaea" offset="0.2857142857142857"/></linearGradient><linearGradient x1="0.1" y1="0" x2="0" y2="1" id="SvgjsLinearGradient1639"><stop stop-color="#eeeeef" offset="0"/><stop stop-color="#eeeeef" offset="0.42857142857142855"/></linearGradient><linearGradient x1="0.1" y1="0" x2="0" y2="1" id="SvgjsLinearGradient1640"><stop stop-color="#f2f2f3" offset="0"/><stop stop-color="#f2f2f3" offset="0.5714285714285714"/></linearGradient><linearGradient x1="0.1" y1="0" x2="0" y2="1" id="SvgjsLinearGradient1641"><stop stop-color="#f7f7f7" offset="0"/><stop stop-color="#f7f7f7" offset="0.7142857142857143"/></linearGradient><linearGradient x1="0.1" y1="0" x2="0" y2="1" id="SvgjsLinearGradient1642"><stop stop-color="#fbfbfb" offset="0"/><stop stop-color="#fbfbfb" offset="0.8571428571428571"/></linearGradient><clipPath id="SvgjsClipPath1643"><rect width="3840" height="2160"/></clipPath></defs></svg>